<svg width="500" height="500" viewBox="0 0 500 500" fill="none" xmlns="http://www.w3.org/2000/svg">
<circle cx="250" cy="250" r="237" fill="url(#paint0_radial_2_438)"/>
<path d="M500 382.4H0V382.65H500V382.4Z" fill="#EBEBEB"/>
<path d="M85.58 391.92H52.46V392.17H85.58V391.92Z" fill="#EBEBEB"/>
<path d="M226.56 389.21H171.14V389.46H226.56V389.21Z" fill="#EBEBEB"/>
<path d="M110.19 397.86H91V398.11H110.19V397.86Z" fill="#EBEBEB"/>
<path d="M428.65 391.8H385.46V392.05H428.65V391.8Z" fill="#EBEBEB"/>
<path d="M443.89 391.8H437.56V392.05H443.89V391.8Z" fill="#EBEBEB"/>
<path d="M324.05 395.31H277.21V395.56H324.05V395.31Z" fill="#EBEBEB"/>
<path d="M237 337.8H43.91C42.3973 337.797 40.9475 337.195 39.8789 336.124C38.8102 335.053 38.21 333.603 38.21 332.09V60.66C38.2232 59.156 38.8292 57.718 39.8964 56.6582C40.9637 55.5985 42.406 55.0026 43.91 55H237C238.514 55 239.967 55.6016 241.038 56.6724C242.108 57.7433 242.71 59.1956 242.71 60.71V332.09C242.71 333.604 242.108 335.057 241.038 336.128C239.967 337.198 238.514 337.8 237 337.8ZM43.91 55.2C42.4636 55.2026 41.0774 55.7791 40.0557 56.8027C39.0339 57.8264 38.46 59.2136 38.46 60.66V332.09C38.46 333.536 39.0339 334.924 40.0557 335.947C41.0774 336.971 42.4636 337.547 43.91 337.55H237C238.447 337.547 239.835 336.971 240.858 335.948C241.881 334.924 242.457 333.537 242.46 332.09V60.66C242.457 59.2127 241.881 57.8255 240.858 56.8021C239.835 55.7787 238.447 55.2026 237 55.2H43.91Z" fill="#EBEBEB"/>
<path d="M453.31 337.8H260.21C258.696 337.797 257.246 337.195 256.175 336.125C255.105 335.054 254.503 333.604 254.5 332.09V60.66C254.516 59.1551 255.124 57.7171 256.193 56.6576C257.262 55.5981 258.705 55.0025 260.21 55H453.31C454.812 55.0052 456.252 55.6022 457.317 56.6617C458.382 57.7212 458.987 59.1578 459 60.66V332.09C459 333.601 458.401 335.05 457.335 336.121C456.268 337.191 454.821 337.795 453.31 337.8ZM260.21 55.2C258.763 55.2026 257.375 55.7787 256.352 56.8021C255.329 57.8255 254.753 59.2127 254.75 60.66V332.09C254.753 333.537 255.329 334.924 256.352 335.948C257.375 336.971 258.763 337.547 260.21 337.55H453.31C454.757 337.547 456.145 336.971 457.168 335.948C458.191 334.924 458.767 333.537 458.77 332.09V60.66C458.767 59.2127 458.191 57.8255 457.168 56.8021C456.145 55.7787 454.757 55.2026 453.31 55.2H260.21Z" fill="#EBEBEB"/>
<path d="M297.84 74.39H104.78V212.98H297.84V74.39Z" fill="#FAFAFA"/>
<path d="M286.85 212.99L237.75 74.39H200.9L250 212.99H286.85Z" fill="white"/>
<path d="M187.76 212.99L138.66 74.39H125.22L174.32 212.99H187.76Z" fill="white"/>
<path d="M95.58 69.63H307.05C307.162 69.63 307.274 69.6523 307.378 69.6957C307.481 69.739 307.576 69.8025 307.655 69.8825C307.734 69.9625 307.796 70.0574 307.838 70.1617C307.88 70.2659 307.901 70.3775 307.9 70.49C307.9 70.7154 307.81 70.9316 307.651 71.091C307.492 71.2505 307.275 71.34 307.05 71.34H95.58C95.3536 71.34 95.1364 71.2508 94.9754 71.0917C94.8144 70.9325 94.7226 70.7164 94.72 70.49C94.72 70.2619 94.8106 70.0432 94.9719 69.8819C95.1332 69.7206 95.3519 69.63 95.58 69.63Z" fill="#E0E0E0"/>
<path d="M202.46 74.1H200.17V213.29H202.46V74.1Z" fill="#F0F0F0"/>
<path d="M200.16 74.1H199.02V213.29H200.16V74.1Z" fill="#E0E0E0"/>
<path d="M103.45 142.54V144.83H299.18V142.54H103.45Z" fill="#F0F0F0"/>
<path d="M103.45 212V73H299.17V212V214.29H103.45V212ZM296.89 212V75.35H105.74V212H296.89Z" fill="#F0F0F0"/>
<path d="M103.44 73.06H102.3V214.32H103.44V73.06Z" fill="#E0E0E0"/>
<path opacity="0.5" d="M131.83 67.53V230.29H90.51L98.09 67.53H131.83Z" fill="#EBEBEB"/>
<path opacity="0.5" d="M269.65 67.53V230.29H310.97L303.39 67.53H269.65Z" fill="#EBEBEB"/>
<path d="M77.68 249.79H61.92V377.62H77.68V249.79Z" fill="#F0F0F0"/>
<path d="M238.58 377.62H64.95V382.4H238.58V377.62Z" fill="#F0F0F0"/>
<path d="M77.69 377.62H241.61L241.61 249.79H77.69L77.69 377.62Z" fill="#F5F5F5"/>
<path d="M76.05 245.62H59.94V249.79H76.05V245.62Z" fill="#F0F0F0"/>
<path d="M76.04 249.79L243.58 249.79V245.62L76.04 245.62V249.79Z" fill="#FAFAFA"/>
<path d="M235.94 321.73H83.35V258.54H235.94V321.73ZM84.41 320.67H234.88V259.6H84.41V320.67Z" fill="#E0E0E0"/>
<path d="M235.94 368.86H83.35V328.05H235.94V368.86ZM84.41 367.8H234.88V329.11H84.41V367.8Z" fill="#E0E0E0"/>
<path d="M213.98 259.07H105.31C104.537 259.07 103.91 259.697 103.91 260.47V261.06C103.91 261.833 104.537 262.46 105.31 262.46H213.98C214.753 262.46 215.38 261.833 215.38 261.06V260.47C215.38 259.697 214.753 259.07 213.98 259.07Z" fill="#E0E0E0"/>
<path d="M213.98 328.58H105.31C104.537 328.58 103.91 329.207 103.91 329.98V330.57C103.91 331.343 104.537 331.97 105.31 331.97H213.98C214.753 331.97 215.38 331.343 215.38 330.57V329.98C215.38 329.207 214.753 328.58 213.98 328.58Z" fill="#E0E0E0"/>
<path d="M347.86 376.26H439.54L439.54 96.54H347.86V376.26Z" fill="#F0F0F0"/>
<path d="M347.86 96.55H344.95V376.27H347.86V96.55Z" fill="#E0E0E0"/>
<path d="M362.74 365.59H424.67L424.67 107.21H362.74V365.59Z" fill="#FAFAFA"/>
<path d="M250 427.56C357.082 427.56 443.89 422.492 443.89 416.24C443.89 409.988 357.082 404.92 250 404.92C142.917 404.92 56.11 409.988 56.11 416.24C56.11 422.492 142.917 427.56 250 427.56Z" fill="#F5F5F5"/>
<path d="M143.36 407.53L151.19 404.56L146.39 385.64L138.56 388.61L143.36 407.53Z" fill="#B55B52"/>
<path d="M84.53 407.69H92.9L94.16 388.29H85.78L84.53 407.69Z" fill="#B55B52"/>
<path d="M93.74 406.72H83.53C83.366 406.717 83.2065 406.773 83.0801 406.878C82.9536 406.982 82.8685 407.128 82.84 407.29L81.56 414.73C81.5342 414.916 81.5486 415.105 81.6022 415.284C81.6558 415.464 81.7472 415.63 81.8705 415.771C81.9937 415.912 82.1458 416.026 82.3165 416.103C82.4872 416.18 82.6726 416.22 82.86 416.22C86.14 416.16 88.53 415.97 92.67 415.97C95.21 415.97 102.9 416.24 106.42 416.24C109.94 416.24 110.22 412.76 108.76 412.44C102.24 411.03 97.28 409.09 95.12 407.23C94.7347 406.902 94.2458 406.722 93.74 406.72Z" fill="#263238"/>
<path d="M150.79 403.68L142.24 406.92C142.084 406.979 141.953 407.09 141.867 407.233C141.782 407.377 141.748 407.545 141.77 407.71L142.87 415.25C142.889 415.436 142.951 415.615 143.051 415.773C143.151 415.931 143.287 416.063 143.446 416.16C143.606 416.257 143.786 416.316 143.973 416.331C144.159 416.347 144.346 416.319 144.52 416.25C147.58 415.03 150.19 413.48 154.09 412.08C158.546 410.631 162.831 408.704 166.87 406.33C169.77 404.49 168.55 400.99 167.18 401.54C160.96 404.04 159.43 404.86 152.9 403.6C152.203 403.431 151.472 403.458 150.79 403.68Z" fill="#263238"/>
<path d="M128.7 152.49C131.33 157.15 134.11 161.95 136.91 166.59C139.71 171.23 142.58 175.87 145.63 180.19C146.36 181.28 147.18 182.33 147.92 183.34C148.084 183.634 148.305 183.892 148.57 184.1C149.038 184.34 149.571 184.424 150.09 184.34C151.046 184.242 151.984 184.017 152.88 183.67C155.149 182.78 157.315 181.646 159.34 180.29C160.42 179.58 161.52 178.85 162.59 178.07C163.66 177.29 164.74 176.45 165.72 175.7L170.41 179.88C169.555 181.116 168.637 182.307 167.66 183.45C166.716 184.603 165.714 185.707 164.66 186.76C163.578 187.85 162.433 188.875 161.23 189.83C159.977 190.855 158.639 191.772 157.23 192.57C155.64 193.491 153.931 194.188 152.15 194.64C149.936 195.211 147.614 195.211 145.4 194.64C143.007 193.974 140.862 192.622 139.23 190.75C138.23 189.59 137.23 188.5 136.33 187.35C132.709 182.857 129.34 178.167 126.24 173.3C123.14 168.48 120.24 163.65 117.58 158.51L128.7 152.49Z" fill="#B65B52"/>
<path d="M113.84 152.88C111.59 160.56 127.48 181.5 127.48 181.5L143.48 171.19C140.462 164.53 136.737 158.214 132.37 152.35C125.84 144 116.32 144.45 113.84 152.88Z" fill="black"/>
<path opacity="0.2" d="M113.84 152.88C111.59 160.56 127.48 181.5 127.48 181.5L143.48 171.19C140.462 164.53 136.737 158.214 132.37 152.35C125.84 144 116.32 144.45 113.84 152.88Z" fill="black"/>
<path opacity="0.2" d="M123.61 161.89C126.91 163.3 131.76 171.24 134.29 177.13L127.48 181.5C123.684 176.426 120.268 171.078 117.26 165.5C119.41 163.11 121.87 161.15 123.61 161.89Z" fill="black"/>
<path d="M164.73 178.31L167.67 170.08L176 174.08C176 174.08 174.27 181.41 168.17 181.4L164.73 178.31Z" fill="#B55B52"/>
<path d="M175.08 164.67L178.61 168.56L176 174.06L167.67 170.08L175.08 164.67Z" fill="#B55B52"/>
<path opacity="0.2" d="M146.39 385.65L148.86 395.4L141.03 398.37L138.56 388.62L146.39 385.65Z" fill="black"/>
<path opacity="0.2" d="M85.78 388.3H94.16L93.51 398.29H85.13L85.78 388.3Z" fill="black"/>
<path d="M76.52 149.48C85.52 181.29 84.06 215.04 84.62 221.9L129.38 220.22C136.99 172.8 123.38 146.41 123.38 146.41C123.38 146.41 120.51 145.86 116.6 145.46C115.38 145.33 114.06 145.22 112.68 145.15C111.92 145.1 111.15 145.08 110.37 145.06C104.015 145.168 97.6708 145.642 91.37 146.48C90.18 146.63 88.97 146.8 87.79 147C86.61 147.2 85.64 147.38 84.63 147.58C80 148.49 76.52 149.48 76.52 149.48Z" fill="black"/>
<path opacity="0.2" d="M76.52 149.48C85.52 181.29 84.06 215.04 84.62 221.9L129.38 220.22C136.99 172.8 123.38 146.41 123.38 146.41C123.38 146.41 120.51 145.86 116.6 145.46C115.38 145.33 114.06 145.22 112.68 145.15C111.92 145.1 111.15 145.08 110.37 145.06C104.015 145.168 97.6708 145.642 91.37 146.48C90.18 146.63 88.97 146.8 87.79 147C86.61 147.2 85.64 147.38 84.63 147.58C80 148.49 76.52 149.48 76.52 149.48Z" fill="black"/>
<path opacity="0.2" d="M86.05 163.13C86.85 166.2 85.93 180.25 82.72 183.71C82.28 179.21 81.72 174.52 80.92 169.71L86.05 163.13Z" fill="black"/>
<path d="M91.62 125C93.27 131 95.3 142.12 91.33 146.51C94.9 149.57 99.52 153.06 106.79 152.77C114.06 152.48 112.43 147.59 110.32 145.1C103.38 143.98 103.18 138.92 104.02 134.1L91.62 125Z" fill="#B55B52"/>
<path d="M106.98 151.7L108.3 152.59L103.48 154L104.72 151.76L106.98 151.7Z" fill="black"/>
<path d="M108.8 151.23L108.3 152.59L113.14 154L112.81 151.41L108.8 151.23Z" fill="black"/>
<path d="M88.44 146L90.34 145.05C90.6439 144.898 90.9838 144.832 91.3225 144.86C91.6612 144.889 91.9856 145.01 92.26 145.21C96.6552 148.398 101.681 150.611 107 151.7C103.18 153.52 104.12 158.42 104.12 158.42C104.12 158.42 91.97 154.42 88.12 147.16C88.0111 146.963 87.9835 146.732 88.0434 146.515C88.1032 146.298 88.2456 146.113 88.44 146Z" fill="white"/>
<path d="M112.44 144.75L109.65 144.33C109.578 144.318 109.504 144.328 109.438 144.359C109.371 144.389 109.315 144.438 109.277 144.5C109.239 144.562 109.219 144.634 109.222 144.707C109.224 144.78 109.248 144.851 109.29 144.91C110.29 146.3 111.89 149.35 108.8 151.23C112.62 153.05 113.8 157.52 113.8 157.52C113.8 157.52 118.8 152.15 112.98 145.06C112.841 144.898 112.65 144.788 112.44 144.75Z" fill="white"/>
<path opacity="0.2" d="M96.67 128.66L104 134C103.788 135.128 103.678 136.272 103.67 137.42C101.04 137.24 97.25 134.65 96.77 131.94C96.5423 130.861 96.5085 129.751 96.67 128.66Z" fill="black"/>
<path d="M112.87 112.61C112.53 115.52 109.74 118.02 107.94 118.61L105.69 106C110.74 102.43 113.34 108.53 112.87 112.61Z" fill="#263238"/>
<path d="M89.09 116.1C90.55 124.28 90.98 129.15 95.63 132.9C102.63 138.54 112.36 133.59 113.38 125.14C114.3 117.53 111.76 105.43 103.32 103.08C101.461 102.554 99.4981 102.512 97.618 102.957C95.7379 103.402 94.0028 104.321 92.5773 105.625C91.1518 106.929 90.0832 108.576 89.4729 110.41C88.8626 112.243 88.7308 114.202 89.09 116.1Z" fill="#B55B52"/>
<path d="M90.65 121.62C94.44 123.62 96.1 119.11 96.14 117.27C96.14 114.35 94.92 111.14 93.41 109.97C100.73 109.97 115.21 109.61 111.55 102.64C107.89 95.67 100.55 96.46 95.08 100.28C92.17 102.28 82.75 100.54 85.08 105.97C80.17 108.58 84.43 118.31 90.65 121.62Z" fill="#263238"/>
<path d="M85.88 105.52C84.5749 105.514 83.3076 105.082 82.27 104.29C82.44 105.021 82.8451 105.676 83.4231 106.155C84.0011 106.633 84.7202 106.909 85.47 106.94L85.88 105.52Z" fill="#263238"/>
<path d="M86 122.83C86.9383 124.712 88.5801 126.149 90.57 126.83C93.21 127.68 93.81 125.26 93.17 122.72C92.59 120.42 91.35 117.31 88.66 117.56C85.97 117.81 84.88 120.53 86 122.83Z" fill="#B55B52"/>
<path d="M139.13 308.75C135.73 283.42 129.38 220.22 129.38 220.22L100 221.33C100 221.33 113.88 284.48 118.9 310.09C123.92 335.7 137.9 397.5 137.9 397.5L151.16 392.5C151.16 392.5 142.68 335.09 139.13 308.75Z" fill="#263238"/>
<path opacity="0.2" d="M111 238.35C108.581 238.928 106.335 240.076 104.45 241.7C107.23 254.47 110.86 271.28 113.98 286.09C116.06 273.26 116.12 249.05 111 238.35Z" fill="black"/>
<path d="M113.51 220.82C113.51 220.82 107.26 289.38 104.4 313.74C101.27 340.43 97.4 396.36 97.4 396.36H82C82 396.36 81.37 346.89 83.36 320.77C85.63 291.02 84.61 221.9 84.61 221.9L113.51 220.82Z" fill="#263238"/>
<path d="M99.4 396.69H81.34L80.96 391.29L101.12 390.94L99.4 396.69Z" fill="black"/>
<path d="M152.89 392.16L137.09 398.15L135.16 393.04L152.72 386.08L152.89 392.16Z" fill="black"/>
<path d="M101.86 117C101.93 117.68 102.35 118.18 102.79 118.13C103.23 118.08 103.52 117.49 103.44 116.82C103.36 116.15 102.95 115.65 102.51 115.7C102.07 115.75 101.78 116.29 101.86 117Z" fill="#263238"/>
<path d="M109.44 116.09C109.52 116.76 109.94 117.26 110.37 117.21C110.8 117.16 111.11 116.58 111.03 115.91C110.95 115.24 110.53 114.73 110.09 114.78C109.65 114.83 109.36 115.42 109.44 116.09Z" fill="#263238"/>
<path d="M107.07 116.7C108.104 118.659 109.403 120.466 110.93 122.07C110.514 122.457 110.018 122.747 109.477 122.92C108.936 123.093 108.363 123.144 107.8 123.07L107.07 116.7Z" fill="#A02724"/>
<path d="M105.18 125.16C104.421 125.158 103.67 125.001 102.973 124.698C102.277 124.396 101.649 123.954 101.13 123.4C101.111 123.38 101.096 123.356 101.086 123.33C101.076 123.304 101.072 123.276 101.074 123.248C101.075 123.221 101.083 123.194 101.096 123.169C101.108 123.144 101.126 123.122 101.148 123.105C101.169 123.087 101.194 123.075 101.221 123.067C101.248 123.06 101.276 123.059 101.304 123.063C101.331 123.067 101.358 123.077 101.381 123.092C101.405 123.107 101.425 123.127 101.44 123.15C102.025 123.753 102.743 124.21 103.537 124.485C104.331 124.759 105.178 124.843 106.01 124.73C106.036 124.726 106.062 124.727 106.087 124.733C106.113 124.74 106.136 124.751 106.157 124.767C106.178 124.783 106.195 124.803 106.207 124.826C106.22 124.849 106.228 124.874 106.23 124.9C106.236 124.952 106.221 125.003 106.189 125.044C106.158 125.085 106.111 125.113 106.06 125.12C105.768 125.158 105.474 125.171 105.18 125.16Z" fill="#263238"/>
<path d="M99.24 114.78C99.1748 114.799 99.1053 114.799 99.04 114.78C98.9949 114.754 98.9554 114.72 98.9239 114.678C98.8924 114.637 98.8694 114.59 98.8564 114.539C98.8433 114.489 98.8405 114.437 98.848 114.385C98.8555 114.334 98.8732 114.284 98.9 114.24C99.2048 113.692 99.636 113.225 100.158 112.877C100.68 112.529 101.277 112.311 101.9 112.24C101.953 112.237 102.005 112.245 102.055 112.263C102.104 112.28 102.15 112.308 102.189 112.343C102.228 112.378 102.26 112.421 102.282 112.468C102.305 112.516 102.317 112.567 102.32 112.62C102.323 112.672 102.315 112.724 102.297 112.773C102.279 112.822 102.252 112.867 102.217 112.905C102.181 112.943 102.138 112.974 102.091 112.996C102.043 113.017 101.992 113.029 101.94 113.03C101.445 113.093 100.971 113.271 100.558 113.551C100.144 113.831 99.8025 114.204 99.56 114.64C99.5229 114.689 99.4741 114.727 99.4181 114.751C99.3621 114.776 99.3008 114.786 99.24 114.78Z" fill="#263238"/>
<path d="M112.41 113.11C112.344 113.107 112.279 113.089 112.222 113.056C112.164 113.023 112.116 112.976 112.08 112.92C111.826 112.491 111.473 112.129 111.05 111.864C110.627 111.6 110.147 111.441 109.65 111.4C109.544 111.4 109.442 111.358 109.367 111.283C109.292 111.208 109.25 111.106 109.25 111C109.25 110.894 109.292 110.792 109.367 110.717C109.442 110.642 109.544 110.6 109.65 110.6C110.278 110.651 110.886 110.849 111.423 111.18C111.96 111.51 112.411 111.962 112.74 112.5C112.768 112.543 112.787 112.592 112.796 112.642C112.805 112.693 112.803 112.745 112.792 112.795C112.781 112.845 112.76 112.893 112.731 112.935C112.701 112.977 112.663 113.013 112.62 113.04C112.559 113.084 112.485 113.108 112.41 113.11Z" fill="#263238"/>
<path d="M96.58 408.18C95.8346 408.161 95.0935 408.061 94.37 407.88C94.3322 407.871 94.2978 407.851 94.2711 407.822C94.2445 407.794 94.2267 407.758 94.22 407.72C94.21 407.682 94.2124 407.643 94.2268 407.607C94.2412 407.571 94.2669 407.54 94.3 407.52C94.59 407.33 97.21 405.67 98.16 406.14C98.2649 406.193 98.3541 406.273 98.4189 406.371C98.4838 406.469 98.5221 406.583 98.53 406.7C98.5654 406.891 98.5509 407.088 98.4878 407.272C98.4248 407.456 98.3153 407.621 98.17 407.75C97.7066 408.075 97.144 408.227 96.58 408.18ZM94.94 407.6C96.37 407.88 97.46 407.83 97.94 407.45C98.0365 407.359 98.1089 407.246 98.1508 407.12C98.1927 406.995 98.2028 406.861 98.18 406.73C98.18 406.57 98.09 406.52 98.04 406.5C97.51 406.25 96 407 94.94 407.6Z" fill="black"/>
<path d="M94.42 407.88C94.3839 407.889 94.3461 407.889 94.31 407.88C94.2799 407.86 94.2551 407.834 94.2377 407.802C94.2202 407.771 94.2107 407.736 94.21 407.7C94.21 407.6 94.3 405.18 95.21 404.39C95.3199 404.287 95.4516 404.21 95.5953 404.165C95.739 404.12 95.891 404.108 96.04 404.13C96.1919 404.132 96.339 404.184 96.4583 404.278C96.5776 404.372 96.6626 404.503 96.7 404.65C96.92 405.58 95.34 407.42 94.49 407.89C94.4662 407.893 94.442 407.89 94.42 407.88ZM95.94 404.49C95.7776 404.491 95.6212 404.552 95.5 404.66C94.9467 405.426 94.646 406.345 94.64 407.29C95.47 406.63 96.46 405.29 96.33 404.69C96.33 404.64 96.33 404.53 96.03 404.49H95.94Z" fill="black"/>
<path d="M152 404.47C151.963 404.472 151.925 404.462 151.893 404.442C151.861 404.423 151.836 404.394 151.82 404.36C151.799 404.327 151.787 404.289 151.787 404.25C151.787 404.211 151.799 404.173 151.82 404.14C152.11 403.82 154.65 401.03 155.82 401.2C155.929 401.212 156.032 401.253 156.12 401.318C156.208 401.383 156.277 401.47 156.32 401.57C156.399 401.725 156.44 401.896 156.44 402.07C156.44 402.244 156.399 402.415 156.32 402.57C155.75 403.65 153.39 404.2 152.03 404.42L152 404.47ZM155.69 401.59C155.02 401.59 153.56 402.9 152.54 403.97C154.38 403.6 155.64 403.03 155.96 402.42C156.014 402.315 156.043 402.198 156.043 402.08C156.043 401.962 156.014 401.845 155.96 401.74C155.944 401.7 155.919 401.666 155.885 401.639C155.852 401.613 155.812 401.596 155.77 401.59H155.69Z" fill="black"/>
<path d="M152 404.47H151.94C151.907 404.461 151.876 404.443 151.851 404.419C151.827 404.394 151.809 404.363 151.8 404.33C151.8 404.24 151.19 402.05 151.87 400.85C151.966 400.678 152.096 400.526 152.253 400.406C152.409 400.286 152.589 400.199 152.78 400.15C153.31 400 153.55 400.21 153.67 400.4C154.15 401.23 152.92 403.64 152.13 404.4C152.116 404.421 152.096 404.439 152.074 404.451C152.051 404.463 152.026 404.47 152 404.47ZM153.09 400.47H152.88C152.739 400.504 152.607 400.568 152.493 400.657C152.379 400.747 152.286 400.861 152.22 400.99C151.889 401.891 151.847 402.874 152.1 403.8C152.84 402.8 153.61 401.04 153.32 400.54C153.28 400.56 153.23 400.48 153.06 400.49L153.09 400.47Z" fill="black"/>
<path d="M85.72 161.32C83.21 166.49 80.65 171.83 78.17 177.09C76.94 179.74 75.7 182.38 74.54 185.03L72.8 189.03L72 191L71.8 191.5L71.65 191.87C71.55 192.1 71.48 192.35 71.39 192.58C70.7695 194.55 70.6594 196.646 71.07 198.67C71.56 201.021 72.4496 203.27 73.7 205.32C75.0766 207.614 76.6706 209.771 78.46 211.76C79.37 212.76 80.33 213.82 81.33 214.76C81.83 215.24 82.33 215.76 82.86 216.19C83.39 216.62 83.92 217.19 84.36 217.54L81 222.89C79.555 222.155 78.1557 221.334 76.81 220.43C75.48 219.56 74.18 218.64 72.92 217.64C70.325 215.584 67.9761 213.235 65.92 210.64C63.6803 207.854 61.9689 204.682 60.87 201.28C59.7001 197.529 59.5312 193.537 60.38 189.7C60.51 189.23 60.61 188.7 60.76 188.28L61.15 187.04L61.85 184.83C62.35 183.38 62.85 181.92 63.37 180.49C64.42 177.62 65.52 174.78 66.71 171.98C69 166.4 71.57 161 74.43 155.53L85.72 161.32Z" fill="#B65B52"/>
<path d="M76.52 149.48C68.88 151.87 61.37 177.78 61.37 177.78L79 185.52C79 185.52 84.72 173 88 163.19C91.63 152.5 85.77 146.58 76.52 149.48Z" fill="black"/>
<path opacity="0.2" d="M76.52 149.48C68.88 151.87 61.37 177.78 61.37 177.78L79 185.52C79 185.52 84.72 173 88 163.19C91.63 152.5 85.77 146.58 76.52 149.48Z" fill="black"/>
<path d="M82.46 215.92L89.77 220.26L82.66 227.34C82.66 227.34 76.49 222.59 78.33 218.87L82.46 215.92Z" fill="#B55B52"/>
<path d="M94.66 227.19L87.32 232.33L82.66 227.34L89.77 220.26L94.66 227.19Z" fill="#B55B52"/>
<path d="M448.365 214.04L448.016 218.858L449.014 218.93L449.363 214.112L448.365 214.04Z" fill="black"/>
<path d="M449.683 195.799L448.672 209.773L449.669 209.845L450.68 195.872L449.683 195.799Z" fill="black"/>
<path d="M422.32 353H177.39C175.641 353.02 173.907 352.674 172.299 351.985C170.692 351.295 169.246 350.276 168.056 348.994C166.865 347.713 165.956 346.196 165.387 344.542C164.818 342.888 164.601 341.133 164.75 339.39L177.75 158.59C178.072 154.929 179.736 151.517 182.422 149.008C185.108 146.5 188.626 145.072 192.3 145H437.23C438.979 144.978 440.713 145.323 442.32 146.012C443.928 146.7 445.373 147.718 446.564 148.999C447.754 150.28 448.664 151.796 449.233 153.449C449.803 155.103 450.019 156.858 449.87 158.6L436.87 339.4C436.55 343.063 434.887 346.478 432.201 348.988C429.515 351.499 425.996 352.928 422.32 353Z" fill="black"/>
<path d="M365.35 416.24H285.84L271.67 318H351.18L365.35 416.24Z" fill="black"/>
<path d="M352.72 410.38H266.72L265.01 416.24H351.02L352.72 410.38Z" fill="black"/>
<path d="M355.37 365.29L277.88 361.06L271.67 318H348.55L355.37 365.29Z" fill="#263238"/>
<path d="M419.56 353H174.62C172.868 353.02 171.132 352.672 169.523 351.979C167.914 351.286 166.469 350.263 165.279 348.977C164.09 347.691 163.184 346.169 162.619 344.511C162.054 342.853 161.843 341.095 162 339.35L175 158.55C175.331 154.9 176.996 151.5 179.677 149C182.358 146.5 185.865 145.076 189.53 145H434.47C436.218 144.98 437.951 145.325 439.557 146.015C441.163 146.704 442.608 147.722 443.797 149.003C444.987 150.283 445.895 151.799 446.464 153.452C447.033 155.105 447.249 156.858 447.1 158.6L434.1 339.4C433.782 343.062 432.121 346.477 429.437 348.987C426.753 351.498 423.235 352.927 419.56 353Z" fill="#263238"/>
<path d="M446.467 160.296L439.032 264.009L439.99 264.078L447.424 160.364L446.467 160.296Z" fill="white"/>
<path d="M438.421 273.04L435.847 308.957L436.804 309.026L439.379 273.108L438.421 273.04Z" fill="white"/>
<path d="M419 349.58H175.62C174.259 349.595 172.909 349.325 171.658 348.787C170.408 348.249 169.283 347.455 168.357 346.457C167.432 345.459 166.725 344.278 166.283 342.99C165.841 341.702 165.673 340.336 165.79 338.98L178.7 158.92C178.949 156.064 180.247 153.402 182.343 151.447C184.438 149.491 187.184 148.381 190.05 148.33H433.47C434.831 148.315 436.179 148.585 437.429 149.122C438.679 149.66 439.803 150.452 440.729 151.45C441.654 152.447 442.361 153.626 442.804 154.913C443.247 156.199 443.416 157.564 443.3 158.92L430.39 339C430.138 341.861 428.833 344.526 426.729 346.48C424.625 348.435 421.871 349.539 419 349.58Z" fill="white"/>
<path opacity="0.2" d="M419 349.58H175.62C174.259 349.595 172.909 349.325 171.658 348.787C170.408 348.249 169.283 347.455 168.357 346.457C167.432 345.459 166.725 344.278 166.283 342.99C165.841 341.702 165.673 340.336 165.79 338.98L178.7 158.92C178.949 156.064 180.247 153.402 182.343 151.447C184.438 149.491 187.184 148.381 190.05 148.33H433.47C434.831 148.315 436.179 148.585 437.429 149.122C438.679 149.66 439.803 150.452 440.729 151.45C441.654 152.447 442.361 153.626 442.804 154.913C443.247 156.199 443.416 157.564 443.3 158.92L430.39 339C430.138 341.861 428.833 344.526 426.729 346.48C424.625 348.435 421.871 349.539 419 349.58Z" fill="black"/>
<path opacity="0.5" d="M238.06 341.6H181.22C180.562 341.608 179.91 341.478 179.305 341.219C178.7 340.959 178.157 340.576 177.709 340.094C177.262 339.611 176.92 339.041 176.707 338.418C176.493 337.796 176.413 337.135 176.47 336.48L189.01 161.48C189.129 160.098 189.756 158.81 190.77 157.864C191.784 156.918 193.113 156.382 194.5 156.36H251.34C251.998 156.35 252.651 156.479 253.257 156.738C253.862 156.997 254.407 157.38 254.854 157.863C255.302 158.346 255.644 158.917 255.857 159.54C256.069 160.163 256.149 160.824 256.09 161.48L243.55 336.48C243.429 337.861 242.801 339.148 241.788 340.094C240.774 341.039 239.446 341.576 238.06 341.6Z" fill="white"/>
<path opacity="0.4" d="M235.86 181H206.44C205.848 181.006 205.261 180.889 204.717 180.655C204.172 180.421 203.683 180.076 203.28 179.642C202.877 179.208 202.569 178.694 202.376 178.134C202.184 177.574 202.11 176.98 202.16 176.39L202.48 171.88C202.589 170.637 203.153 169.478 204.065 168.627C204.978 167.776 206.173 167.292 207.42 167.27H236.85C237.442 167.264 238.029 167.381 238.573 167.615C239.118 167.849 239.607 168.194 240.01 168.628C240.413 169.062 240.721 169.576 240.914 170.136C241.107 170.696 241.18 171.29 241.13 171.88L240.8 176.39C240.702 177.637 240.141 178.802 239.227 179.656C238.312 180.509 237.111 180.989 235.86 181Z" fill="black"/>
<path d="M217.15 251.8H172.24C171.21 251.813 170.188 251.611 169.24 251.206C168.293 250.802 167.44 250.204 166.737 249.451C166.034 248.698 165.496 247.806 165.157 246.833C164.818 245.86 164.686 244.827 164.77 243.8L168 198.84C168.199 196.679 169.189 194.667 170.78 193.191C172.37 191.715 174.45 190.878 176.62 190.84H221.54C222.569 190.828 223.59 191.031 224.536 191.437C225.483 191.842 226.334 192.44 227.036 193.193C227.739 193.946 228.276 194.837 228.614 195.809C228.952 196.782 229.084 197.814 229 198.84L225.78 243.76C225.592 245.931 224.606 247.955 223.011 249.44C221.417 250.925 219.329 251.766 217.15 251.8Z" fill="black"/>
<path d="M223.59 215C222.761 215.017 221.967 215.339 221.361 215.906C220.756 216.473 220.381 217.244 220.31 218.07L219.84 224.59C219.806 224.983 219.855 225.378 219.984 225.75C220.113 226.123 220.318 226.464 220.586 226.752C220.855 227.041 221.181 227.269 221.543 227.424C221.905 227.579 222.296 227.656 222.69 227.65H227.25C227.456 227.648 227.653 227.569 227.803 227.428C227.953 227.287 228.045 227.095 228.06 226.89L228.86 215.76C228.868 215.662 228.856 215.564 228.824 215.471C228.792 215.379 228.741 215.294 228.674 215.222C228.607 215.15 228.526 215.094 228.436 215.055C228.345 215.017 228.248 214.998 228.15 215H223.59Z" fill="white"/>
<path d="M206.26 202.23H178C177.842 202.232 177.685 202.201 177.54 202.139C177.395 202.076 177.264 201.984 177.157 201.868C177.049 201.752 176.967 201.615 176.916 201.466C176.865 201.316 176.846 201.157 176.86 201C176.887 200.667 177.038 200.357 177.282 200.13C177.526 199.902 177.846 199.774 178.18 199.77H206.49C206.648 199.768 206.805 199.799 206.95 199.861C207.095 199.924 207.226 200.016 207.333 200.132C207.441 200.248 207.523 200.385 207.574 200.534C207.625 200.684 207.644 200.843 207.63 201C207.6 201.34 207.441 201.657 207.187 201.885C206.933 202.113 206.602 202.236 206.26 202.23Z" fill="white"/>
<path d="M205.82 208.48H177.5C177.342 208.482 177.185 208.451 177.04 208.389C176.895 208.326 176.764 208.234 176.657 208.118C176.549 208.002 176.467 207.865 176.416 207.716C176.365 207.566 176.346 207.407 176.36 207.25C176.39 206.919 176.541 206.611 176.785 206.386C177.029 206.16 177.348 206.034 177.68 206.03H206C206.158 206.027 206.314 206.056 206.459 206.118C206.605 206.179 206.735 206.27 206.843 206.385C206.95 206.5 207.033 206.637 207.084 206.786C207.135 206.935 207.154 207.093 207.14 207.25C207.113 207.583 206.962 207.893 206.718 208.12C206.474 208.348 206.154 208.476 205.82 208.48Z" fill="white"/>
<path d="M195.58 214.74H177.05C176.892 214.74 176.736 214.708 176.592 214.645C176.447 214.583 176.317 214.491 176.21 214.375C176.103 214.259 176.021 214.123 175.97 213.974C175.918 213.825 175.898 213.667 175.91 213.51C175.937 213.177 176.088 212.867 176.332 212.64C176.576 212.412 176.896 212.284 177.23 212.28H195.76C195.918 212.278 196.075 212.309 196.22 212.371C196.365 212.434 196.496 212.526 196.603 212.642C196.711 212.758 196.793 212.895 196.844 213.044C196.895 213.194 196.914 213.353 196.9 213.51C196.87 213.842 196.719 214.151 196.476 214.378C196.232 214.605 195.913 214.734 195.58 214.74Z" fill="white"/>
<path opacity="0.5" d="M206.34 244.54H179C178.324 244.548 177.654 244.415 177.033 244.148C176.412 243.881 175.853 243.488 175.394 242.992C174.934 242.497 174.583 241.91 174.364 241.271C174.144 240.632 174.061 239.953 174.12 239.28L175.12 224.89C175.241 223.473 175.884 222.151 176.924 221.181C177.965 220.211 179.328 219.662 180.75 219.64H208.14C208.815 219.632 209.484 219.765 210.105 220.031C210.725 220.297 211.283 220.69 211.742 221.184C212.202 221.679 212.553 222.264 212.773 222.902C212.993 223.54 213.077 224.217 213.02 224.89L212.02 239.28C211.896 240.706 211.245 242.034 210.195 243.006C209.145 243.979 207.771 244.526 206.34 244.54Z" fill="white"/>
<path opacity="0.4" d="M231.91 268.62H197.83C197.537 268.624 197.246 268.566 196.976 268.451C196.707 268.336 196.464 268.165 196.264 267.95C196.065 267.735 195.912 267.481 195.817 267.204C195.721 266.926 195.685 266.632 195.71 266.34C195.764 265.724 196.045 265.151 196.497 264.73C196.95 264.309 197.542 264.07 198.16 264.06H232.24C232.532 264.058 232.822 264.116 233.091 264.232C233.359 264.348 233.6 264.519 233.799 264.734C233.998 264.948 234.149 265.202 234.244 265.479C234.339 265.755 234.375 266.049 234.35 266.34C234.298 266.955 234.02 267.528 233.569 267.95C233.118 268.371 232.527 268.61 231.91 268.62Z" fill="black"/>
<path opacity="0.8" d="M225 277.57H203.42C203.127 277.574 202.836 277.516 202.566 277.401C202.297 277.286 202.054 277.115 201.854 276.9C201.655 276.685 201.502 276.431 201.407 276.154C201.311 275.876 201.275 275.582 201.3 275.29C201.352 274.675 201.63 274.102 202.081 273.68C202.532 273.259 203.123 273.02 203.74 273.01H225.37C225.663 273.006 225.953 273.064 226.223 273.179C226.492 273.295 226.734 273.465 226.933 273.68C227.132 273.895 227.283 274.15 227.377 274.427C227.472 274.704 227.507 274.998 227.48 275.29C227.427 275.912 227.143 276.491 226.684 276.913C226.225 277.335 225.624 277.57 225 277.57Z" fill="white"/>
<path opacity="0.4" d="M230.14 293.31H196.06C195.767 293.312 195.477 293.254 195.208 293.138C194.939 293.022 194.697 292.851 194.498 292.637C194.298 292.422 194.146 292.169 194.05 291.892C193.954 291.616 193.916 291.322 193.94 291.03C193.994 290.414 194.275 289.841 194.727 289.42C195.18 288.999 195.772 288.76 196.39 288.75H230.47C230.762 288.748 231.052 288.806 231.321 288.922C231.589 289.038 231.83 289.209 232.029 289.424C232.228 289.638 232.379 289.892 232.474 290.169C232.569 290.445 232.605 290.739 232.58 291.03C232.528 291.645 232.25 292.218 231.799 292.64C231.348 293.061 230.757 293.3 230.14 293.31Z" fill="black"/>
<path opacity="0.8" d="M223.27 302.25H201.65C201.357 302.255 201.067 302.199 200.797 302.085C200.527 301.971 200.285 301.801 200.085 301.587C199.885 301.373 199.732 301.119 199.637 300.842C199.541 300.566 199.505 300.272 199.53 299.98C199.582 299.36 199.865 298.782 200.322 298.36C200.779 297.938 201.378 297.703 202 297.7H223.6C223.893 297.696 224.184 297.754 224.454 297.869C224.723 297.984 224.966 298.155 225.166 298.37C225.365 298.585 225.518 298.839 225.613 299.116C225.709 299.394 225.745 299.688 225.72 299.98C225.666 300.595 225.385 301.167 224.932 301.587C224.479 302.006 223.887 302.242 223.27 302.25Z" fill="white"/>
<path opacity="0.4" d="M228.37 318H194.29C193.997 318.002 193.707 317.944 193.438 317.828C193.169 317.712 192.927 317.541 192.728 317.327C192.529 317.112 192.376 316.859 192.28 316.582C192.184 316.306 192.146 316.012 192.17 315.72C192.222 315.104 192.502 314.528 192.955 314.107C193.408 313.686 194.001 313.448 194.62 313.44H228.7C228.993 313.436 229.283 313.494 229.553 313.609C229.822 313.725 230.064 313.895 230.263 314.11C230.462 314.325 230.613 314.58 230.707 314.857C230.802 315.134 230.837 315.428 230.81 315.72C230.758 316.335 230.48 316.908 230.029 317.33C229.578 317.751 228.987 317.99 228.37 318Z" fill="black"/>
<path opacity="0.8" d="M221.5 326.94H199.88C199.587 326.944 199.296 326.886 199.026 326.771C198.757 326.656 198.514 326.485 198.314 326.27C198.115 326.055 197.962 325.801 197.867 325.524C197.771 325.246 197.735 324.952 197.76 324.66C197.814 324.046 198.093 323.474 198.543 323.053C198.994 322.632 199.584 322.392 200.2 322.38H221.83C222.123 322.378 222.413 322.436 222.682 322.552C222.951 322.668 223.193 322.839 223.392 323.053C223.592 323.268 223.744 323.521 223.84 323.798C223.936 324.074 223.974 324.368 223.95 324.66C223.898 325.277 223.618 325.851 223.165 326.273C222.712 326.694 222.119 326.932 221.5 326.94Z" fill="white"/>
<path opacity="0.5" d="M421.68 290.27C423.16 288.01 426.55 288.96 426.36 291.57L423.08 337.33C422.91 339.68 421.13 341.6 419.08 341.6H254.27C252.27 341.6 250.75 339.68 250.92 337.33L252.92 310.14C252.987 309.275 253.244 308.436 253.672 307.682C254.101 306.928 254.69 306.278 255.399 305.779C256.108 305.279 256.918 304.942 257.772 304.792C258.627 304.642 259.503 304.682 260.34 304.91C269.63 307.8 277.59 306.1 284.99 302.43C300.81 294.58 314.05 277.72 332.24 277.72C332.94 277.72 333.63 277.72 334.3 277.78C361.36 279.41 369.6 313.03 390.56 313.03C396.76 313.03 402.41 310.35 407.34 306.54C413.32 301.87 418.25 295.5 421.68 290.27Z" fill="black"/>
<path opacity="0.5" d="M425.1 309.12L423.1 337.33C422.93 339.68 421.15 341.6 419.1 341.6H254.27C252.27 341.6 250.75 339.68 250.92 337.33L254.92 281.27C255.19 277.43 260.22 275.81 262.26 278.92C267.52 286.92 275.61 297.31 284.92 302.43C288.304 304.405 292.133 305.489 296.05 305.58C309.37 305.58 320.7 289.79 334.23 277.78C342.52 270.42 351.64 264.48 362.55 264.48C385.32 264.48 388.68 301.48 407.27 306.54C410.85 307.54 415 307.31 419.96 305.41C420.547 305.156 421.189 305.06 421.824 305.129C422.459 305.198 423.066 305.431 423.584 305.805C424.102 306.179 424.514 306.681 424.78 307.262C425.046 307.843 425.156 308.483 425.1 309.12Z" fill="black"/>
<g opacity="0.8">
<path d="M425.91 298.18C425.821 298.177 425.735 298.141 425.67 298.08C425.638 298.05 425.614 298.012 425.6 297.97C425.591 297.927 425.591 297.883 425.6 297.84C425.6 297.795 425.608 297.751 425.625 297.71C425.643 297.668 425.668 297.631 425.7 297.6C425.764 297.536 425.85 297.501 425.94 297.501C426.03 297.501 426.116 297.536 426.18 297.6C426.213 297.63 426.239 297.668 426.256 297.709C426.274 297.75 426.282 297.795 426.28 297.84C426.285 297.883 426.285 297.927 426.28 297.97C426.259 298.011 426.232 298.048 426.2 298.08C426.162 298.118 426.117 298.146 426.067 298.163C426.016 298.181 425.963 298.186 425.91 298.18Z" fill="white"/>
<path d="M265.64 321.61C265.55 321.61 265.463 321.574 265.4 321.51C265.336 321.447 265.3 321.36 265.3 321.27C265.303 321.182 265.34 321.098 265.403 321.036C265.467 320.974 265.552 320.94 265.64 320.94C265.73 320.94 265.817 320.976 265.88 321.04C265.944 321.103 265.98 321.19 265.98 321.28C265.98 321.371 265.945 321.459 265.881 321.524C265.818 321.589 265.731 321.627 265.64 321.63V321.61ZM262.21 321.42C262.165 321.418 262.121 321.406 262.08 321.386C262.04 321.365 262.004 321.337 261.975 321.302C261.946 321.268 261.924 321.227 261.911 321.184C261.898 321.141 261.894 321.095 261.9 321.05C261.905 321.005 261.919 320.962 261.941 320.922C261.962 320.883 261.992 320.848 262.027 320.821C262.063 320.793 262.103 320.772 262.147 320.76C262.19 320.748 262.235 320.744 262.28 320.75C262.369 320.76 262.45 320.804 262.506 320.874C262.562 320.943 262.588 321.031 262.58 321.12C262.57 321.204 262.531 321.282 262.468 321.339C262.406 321.396 262.325 321.428 262.24 321.43L262.21 321.42ZM268.68 321.12C268.674 321.075 268.678 321.03 268.69 320.987C268.702 320.943 268.723 320.903 268.751 320.867C268.778 320.832 268.813 320.802 268.853 320.781C268.892 320.759 268.935 320.745 268.98 320.74C269.025 320.734 269.07 320.738 269.113 320.75C269.157 320.762 269.197 320.783 269.233 320.811C269.268 320.838 269.298 320.873 269.319 320.913C269.341 320.952 269.355 320.995 269.36 321.04C269.366 321.085 269.362 321.13 269.35 321.173C269.338 321.217 269.317 321.257 269.289 321.293C269.262 321.328 269.227 321.358 269.188 321.379C269.148 321.401 269.105 321.415 269.06 321.42C269.015 321.426 268.97 321.422 268.927 321.41C268.883 321.398 268.843 321.377 268.807 321.349C268.772 321.322 268.742 321.287 268.721 321.248C268.699 321.208 268.685 321.165 268.68 321.12ZM258.83 320.9C258.741 320.879 258.664 320.824 258.614 320.748C258.564 320.672 258.545 320.58 258.56 320.49C258.582 320.401 258.636 320.324 258.712 320.274C258.788 320.224 258.88 320.205 258.97 320.22C259.059 320.241 259.136 320.296 259.186 320.372C259.236 320.448 259.255 320.54 259.24 320.63C259.222 320.707 259.179 320.775 259.117 320.824C259.055 320.873 258.979 320.9 258.9 320.9H258.83ZM272.02 320.56C272.008 320.516 272.005 320.47 272.011 320.425C272.017 320.38 272.033 320.336 272.056 320.297C272.079 320.258 272.11 320.224 272.147 320.197C272.184 320.17 272.226 320.15 272.27 320.14C272.357 320.122 272.448 320.137 272.525 320.184C272.601 320.23 272.656 320.304 272.68 320.39C272.701 320.479 272.687 320.572 272.641 320.651C272.594 320.729 272.518 320.786 272.43 320.81H272.35C272.271 320.817 272.193 320.796 272.129 320.75C272.064 320.704 272.019 320.637 272 320.56H272.02ZM381.39 320.7C381.3 320.7 381.213 320.664 381.15 320.6C381.086 320.537 381.05 320.45 381.05 320.36C381.05 320.27 381.086 320.183 381.15 320.12C381.213 320.056 381.3 320.02 381.39 320.02C381.48 320.02 381.567 320.056 381.63 320.12C381.694 320.183 381.73 320.27 381.73 320.36C381.73 320.45 381.694 320.537 381.63 320.6C381.567 320.664 381.48 320.7 381.39 320.7ZM384.44 320.22C384.434 320.176 384.438 320.131 384.45 320.088C384.462 320.045 384.483 320.006 384.511 319.971C384.539 319.936 384.574 319.908 384.613 319.887C384.653 319.866 384.696 319.854 384.74 319.85C384.785 319.843 384.831 319.845 384.875 319.857C384.919 319.868 384.96 319.889 384.996 319.917C385.031 319.945 385.061 319.98 385.082 320.021C385.104 320.061 385.116 320.105 385.12 320.15C385.128 320.241 385.101 320.332 385.043 320.403C384.985 320.474 384.901 320.52 384.81 320.53C384.72 320.536 384.632 320.507 384.563 320.449C384.494 320.391 384.45 320.309 384.44 320.22ZM377.97 320.49C377.926 320.485 377.883 320.471 377.844 320.449C377.805 320.427 377.771 320.398 377.744 320.362C377.716 320.327 377.697 320.286 377.686 320.243C377.675 320.199 377.673 320.154 377.68 320.11C377.685 320.065 377.699 320.022 377.721 319.982C377.742 319.943 377.772 319.908 377.807 319.881C377.843 319.853 377.883 319.832 377.927 319.82C377.97 319.808 378.015 319.804 378.06 319.81C378.149 319.822 378.23 319.869 378.286 319.94C378.342 320.011 378.369 320.1 378.36 320.19C378.35 320.274 378.311 320.352 378.248 320.409C378.186 320.466 378.105 320.498 378.02 320.5L377.97 320.49ZM255.51 320.08C255.467 320.068 255.426 320.048 255.39 320.021C255.354 319.993 255.325 319.959 255.302 319.92C255.28 319.881 255.266 319.838 255.26 319.793C255.255 319.749 255.258 319.703 255.27 319.66C255.298 319.573 255.358 319.5 255.438 319.455C255.517 319.41 255.611 319.398 255.7 319.42C255.787 319.448 255.859 319.508 255.902 319.588C255.945 319.669 255.955 319.762 255.93 319.85C255.91 319.921 255.866 319.984 255.807 320.027C255.747 320.071 255.674 320.093 255.6 320.09H255.51V320.08ZM387.8 319.75C387.79 319.706 387.789 319.66 387.797 319.616C387.805 319.571 387.823 319.529 387.848 319.491C387.873 319.454 387.906 319.422 387.944 319.398C387.983 319.373 388.025 319.357 388.07 319.35C388.114 319.341 388.159 319.341 388.203 319.35C388.247 319.359 388.289 319.377 388.326 319.402C388.363 319.427 388.395 319.459 388.42 319.496C388.445 319.534 388.462 319.576 388.47 319.62C388.479 319.664 388.479 319.709 388.47 319.753C388.461 319.797 388.443 319.839 388.418 319.876C388.393 319.913 388.361 319.945 388.324 319.97C388.286 319.995 388.244 320.012 388.2 320.02H388.14C388.061 320.02 387.985 319.993 387.923 319.944C387.861 319.895 387.818 319.827 387.8 319.75ZM374.61 319.87C374.565 319.862 374.523 319.845 374.485 319.819C374.448 319.794 374.416 319.76 374.392 319.721C374.369 319.683 374.354 319.639 374.348 319.594C374.343 319.549 374.347 319.503 374.36 319.46C374.381 319.373 374.436 319.297 374.513 319.25C374.59 319.203 374.683 319.189 374.77 319.21C374.857 319.231 374.933 319.286 374.98 319.363C375.027 319.44 375.041 319.532 375.02 319.62C375.002 319.694 374.96 319.76 374.9 319.807C374.84 319.854 374.766 319.88 374.69 319.88H374.61V319.87ZM275.26 319.59C275.243 319.548 275.234 319.503 275.235 319.458C275.235 319.412 275.245 319.368 275.264 319.326C275.283 319.285 275.31 319.248 275.344 319.218C275.377 319.187 275.417 319.164 275.46 319.15C275.544 319.117 275.637 319.119 275.719 319.154C275.802 319.19 275.867 319.257 275.9 319.34C275.916 319.382 275.924 319.427 275.922 319.472C275.921 319.517 275.91 319.561 275.892 319.602C275.873 319.643 275.847 319.679 275.814 319.71C275.781 319.741 275.742 319.764 275.7 319.78C275.661 319.789 275.62 319.789 275.58 319.78C275.514 319.782 275.449 319.765 275.393 319.731C275.336 319.697 275.29 319.649 275.26 319.59ZM391.11 319C391.096 318.956 391.092 318.91 391.097 318.864C391.101 318.818 391.115 318.774 391.138 318.734C391.16 318.693 391.191 318.658 391.227 318.63C391.264 318.602 391.305 318.581 391.35 318.57C391.393 318.558 391.439 318.555 391.483 318.56C391.528 318.566 391.571 318.58 391.61 318.602C391.649 318.625 391.683 318.654 391.711 318.69C391.738 318.726 391.758 318.767 391.77 318.81C391.782 318.853 391.786 318.899 391.78 318.943C391.774 318.988 391.76 319.031 391.738 319.07C391.715 319.109 391.686 319.143 391.65 319.171C391.614 319.198 391.574 319.218 391.53 319.23H391.44C391.368 319.232 391.297 319.21 391.237 319.169C391.178 319.128 391.133 319.068 391.11 319ZM371.33 318.88C371.245 318.85 371.176 318.789 371.137 318.708C371.097 318.628 371.091 318.535 371.12 318.45C371.152 318.365 371.215 318.295 371.297 318.256C371.38 318.217 371.474 318.211 371.56 318.24C371.645 318.272 371.715 318.335 371.754 318.417C371.793 318.5 371.799 318.594 371.77 318.68C371.744 318.746 371.698 318.802 371.639 318.841C371.58 318.881 371.511 318.901 371.44 318.9C371.402 318.904 371.364 318.897 371.33 318.88ZM278.33 318.24C278.309 318.2 278.297 318.156 278.293 318.111C278.29 318.067 278.295 318.021 278.309 317.979C278.323 317.936 278.345 317.896 278.375 317.862C278.404 317.828 278.44 317.8 278.48 317.78C278.562 317.742 278.657 317.737 278.742 317.767C278.828 317.797 278.899 317.859 278.94 317.94C278.96 317.979 278.973 318.022 278.976 318.066C278.98 318.11 278.974 318.155 278.96 318.197C278.946 318.239 278.924 318.278 278.895 318.311C278.866 318.344 278.83 318.371 278.79 318.39C278.738 318.405 278.682 318.405 278.63 318.39C278.578 318.387 278.528 318.371 278.483 318.345C278.438 318.319 278.399 318.283 278.37 318.24H278.33ZM394.33 318C394.314 317.959 394.307 317.915 394.308 317.87C394.31 317.826 394.32 317.783 394.339 317.743C394.358 317.703 394.384 317.667 394.417 317.637C394.45 317.607 394.488 317.585 394.53 317.57C394.615 317.544 394.707 317.551 394.787 317.59C394.866 317.629 394.928 317.697 394.96 317.78C394.989 317.866 394.983 317.96 394.944 318.043C394.905 318.125 394.835 318.188 394.75 318.22H394.64C394.578 318.213 394.518 318.188 394.469 318.15C394.42 318.111 394.382 318.059 394.36 318H394.33ZM368.14 317.58C368.099 317.562 368.063 317.535 368.032 317.503C368.001 317.47 367.978 317.432 367.962 317.39C367.946 317.348 367.939 317.304 367.94 317.259C367.941 317.215 367.952 317.171 367.97 317.13C368.009 317.05 368.078 316.987 368.161 316.955C368.245 316.924 368.338 316.925 368.42 316.96C368.462 316.978 368.5 317.005 368.531 317.038C368.563 317.072 368.587 317.111 368.603 317.154C368.619 317.197 368.626 317.242 368.624 317.288C368.621 317.334 368.61 317.379 368.59 317.42C368.562 317.479 368.518 317.529 368.464 317.564C368.409 317.599 368.345 317.619 368.28 317.62C368.241 317.616 368.203 317.603 368.17 317.58H368.14ZM397.5 316.8C397.482 316.759 397.473 316.714 397.473 316.67C397.473 316.625 397.483 316.58 397.5 316.539C397.518 316.498 397.544 316.461 397.577 316.43C397.609 316.399 397.648 316.375 397.69 316.36C397.73 316.341 397.774 316.33 397.819 316.328C397.864 316.327 397.909 316.335 397.95 316.352C397.992 316.369 398.029 316.395 398.06 316.427C398.091 316.459 398.115 316.498 398.13 316.54C398.148 316.581 398.158 316.626 398.159 316.671C398.159 316.716 398.151 316.761 398.134 316.803C398.118 316.845 398.093 316.883 398.061 316.915C398.029 316.947 397.992 316.973 397.95 316.99C397.907 316.999 397.863 316.999 397.82 316.99C397.759 316.986 397.701 316.967 397.65 316.933C397.599 316.9 397.558 316.854 397.53 316.8H397.5ZM281.3 316.6C281.251 316.522 281.236 316.427 281.256 316.337C281.277 316.247 281.332 316.169 281.41 316.12C281.448 316.096 281.49 316.08 281.535 316.073C281.579 316.065 281.624 316.067 281.668 316.077C281.712 316.087 281.753 316.106 281.789 316.132C281.826 316.159 281.857 316.192 281.88 316.23C281.904 316.268 281.92 316.31 281.927 316.355C281.935 316.399 281.933 316.444 281.923 316.488C281.913 316.532 281.894 316.573 281.868 316.609C281.841 316.646 281.808 316.677 281.77 316.7C281.718 316.739 281.655 316.76 281.59 316.76C281.538 316.754 281.487 316.737 281.442 316.709C281.397 316.681 281.359 316.644 281.33 316.6H281.3ZM365.09 316.05C365.01 316.006 364.95 315.932 364.924 315.844C364.898 315.756 364.907 315.661 364.95 315.58C364.996 315.501 365.071 315.444 365.159 315.42C365.246 315.395 365.34 315.406 365.42 315.45C365.498 315.494 365.555 315.567 365.58 315.653C365.604 315.739 365.593 315.832 365.55 315.91C365.52 315.964 365.477 316.009 365.424 316.04C365.371 316.072 365.311 316.089 365.25 316.09C365.205 316.083 365.161 316.07 365.12 316.05H365.09ZM400.61 315.43C400.572 315.349 400.568 315.256 400.598 315.172C400.628 315.088 400.69 315.019 400.77 314.98C400.852 314.942 400.947 314.937 401.032 314.967C401.118 314.997 401.189 315.059 401.23 315.14C401.248 315.181 401.259 315.225 401.26 315.269C401.261 315.314 401.254 315.358 401.238 315.4C401.222 315.442 401.199 315.48 401.168 315.513C401.137 315.545 401.101 315.572 401.06 315.59H400.91C400.855 315.587 400.802 315.571 400.755 315.543C400.708 315.515 400.669 315.476 400.64 315.43H400.61ZM284.12 314.72C284.069 314.645 284.048 314.553 284.063 314.464C284.078 314.374 284.127 314.294 284.2 314.24C284.274 314.187 284.365 314.165 284.454 314.178C284.544 314.191 284.625 314.239 284.68 314.31C284.732 314.385 284.752 314.477 284.737 314.566C284.722 314.656 284.673 314.736 284.6 314.79C284.542 314.832 284.472 314.857 284.4 314.86C284.351 314.856 284.303 314.841 284.26 314.817C284.217 314.793 284.179 314.76 284.15 314.72H284.12ZM362.12 314.34C362.082 314.317 362.049 314.288 362.023 314.252C361.997 314.217 361.978 314.176 361.968 314.133C361.958 314.09 361.956 314.046 361.963 314.002C361.971 313.959 361.986 313.917 362.01 313.88C362.031 313.84 362.059 313.805 362.094 313.777C362.129 313.749 362.17 313.729 362.213 313.718C362.257 313.706 362.302 313.704 362.346 313.712C362.39 313.719 362.433 313.735 362.47 313.76C362.509 313.783 362.543 313.813 362.57 313.849C362.598 313.885 362.617 313.926 362.629 313.97C362.64 314.014 362.642 314.059 362.636 314.104C362.629 314.148 362.613 314.191 362.59 314.23C362.56 314.28 362.517 314.322 362.467 314.352C362.416 314.382 362.359 314.398 362.3 314.4C362.253 314.389 362.209 314.368 362.17 314.34H362.12ZM403.63 313.91C403.588 313.83 403.579 313.737 403.605 313.651C403.631 313.565 403.69 313.492 403.77 313.45C403.85 313.41 403.942 313.402 404.028 313.429C404.113 313.455 404.186 313.512 404.23 313.59C404.273 313.671 404.282 313.766 404.256 313.854C404.23 313.942 404.17 314.016 404.09 314.06C404.037 314.069 403.983 314.069 403.93 314.06C403.88 314.055 403.831 314.039 403.788 314.013C403.745 313.987 403.708 313.952 403.68 313.91H403.63ZM286.82 312.67C286.792 312.635 286.77 312.595 286.758 312.552C286.745 312.509 286.74 312.464 286.745 312.42C286.75 312.375 286.763 312.332 286.785 312.292C286.806 312.253 286.835 312.218 286.87 312.19C286.941 312.135 287.031 312.11 287.12 312.119C287.209 312.128 287.292 312.172 287.35 312.24C287.412 312.307 287.446 312.394 287.446 312.485C287.446 312.576 287.412 312.663 287.35 312.73C287.286 312.777 287.209 312.801 287.13 312.8C287.079 312.802 287.029 312.791 286.983 312.769C286.938 312.746 286.899 312.712 286.87 312.67H286.82ZM359.24 312.52C359.164 312.471 359.112 312.394 359.093 312.306C359.074 312.218 359.091 312.126 359.14 312.05C359.191 311.974 359.27 311.921 359.36 311.902C359.449 311.883 359.543 311.9 359.62 311.95C359.694 312.001 359.745 312.078 359.763 312.165C359.782 312.253 359.767 312.344 359.72 312.42C359.689 312.469 359.647 312.51 359.596 312.538C359.545 312.566 359.488 312.58 359.43 312.58C359.38 312.569 359.333 312.549 359.29 312.52H359.24ZM406.6 312.27C406.577 312.231 406.561 312.188 406.555 312.144C406.548 312.099 406.55 312.054 406.561 312.01C406.573 311.966 406.592 311.925 406.62 311.889C406.647 311.853 406.681 311.823 406.72 311.8C406.799 311.755 406.892 311.743 406.979 311.765C407.067 311.788 407.142 311.843 407.19 311.92C407.235 311.999 407.247 312.092 407.225 312.179C407.202 312.267 407.147 312.342 407.07 312.39C407.015 312.42 406.953 312.437 406.89 312.44C406.84 312.431 406.792 312.412 406.751 312.382C406.709 312.353 406.675 312.314 406.65 312.27H406.6ZM356.41 310.63C356.335 310.578 356.284 310.498 356.267 310.408C356.251 310.319 356.27 310.226 356.32 310.15C356.374 310.077 356.454 310.028 356.542 310.011C356.631 309.994 356.723 310.012 356.8 310.06C356.873 310.114 356.922 310.193 356.939 310.282C356.956 310.371 356.938 310.463 356.89 310.54C356.858 310.587 356.814 310.625 356.764 310.651C356.713 310.677 356.657 310.69 356.6 310.69C356.55 310.681 356.502 310.66 356.46 310.63H356.41ZM409.5 310.51C409.454 310.431 409.44 310.337 409.46 310.248C409.481 310.159 409.534 310.081 409.61 310.03C409.648 310.006 409.69 309.99 409.735 309.983C409.779 309.975 409.824 309.977 409.868 309.987C409.912 309.997 409.953 310.016 409.989 310.042C410.026 310.069 410.057 310.102 410.08 310.14C410.104 310.178 410.12 310.22 410.127 310.265C410.135 310.309 410.133 310.354 410.123 310.398C410.113 310.442 410.094 310.483 410.068 310.519C410.041 310.556 410.008 310.586 409.97 310.61C409.919 310.65 409.855 310.672 409.79 310.67C409.741 310.661 409.695 310.643 409.653 310.615C409.612 310.588 409.577 310.552 409.55 310.51H409.5ZM289.5 310.51C289.439 310.445 289.405 310.359 289.405 310.27C289.405 310.181 289.439 310.095 289.5 310.03C289.567 309.968 289.654 309.934 289.745 309.934C289.836 309.934 289.923 309.968 289.99 310.03C290.054 310.094 290.089 310.18 290.089 310.27C290.089 310.36 290.054 310.446 289.99 310.51C289.961 310.537 289.926 310.559 289.888 310.572C289.85 310.586 289.81 310.592 289.77 310.59C289.723 310.599 289.675 310.598 289.629 310.588C289.582 310.577 289.539 310.558 289.5 310.53V310.51ZM412.4 308.63C412.348 308.555 412.328 308.463 412.343 308.374C412.358 308.284 412.407 308.204 412.48 308.15C412.517 308.124 412.559 308.105 412.604 308.095C412.648 308.086 412.694 308.085 412.739 308.093C412.784 308.102 412.826 308.119 412.864 308.144C412.902 308.169 412.935 308.202 412.96 308.24C413.01 308.314 413.029 308.405 413.012 308.494C412.995 308.582 412.944 308.659 412.87 308.71C412.814 308.748 412.748 308.769 412.68 308.77C412.627 308.773 412.574 308.764 412.526 308.743C412.477 308.722 412.434 308.69 412.4 308.65V308.63ZM353.65 308.71C353.612 308.686 353.58 308.654 353.555 308.617C353.53 308.58 353.513 308.538 353.504 308.494C353.496 308.45 353.496 308.405 353.506 308.361C353.516 308.318 353.534 308.276 353.56 308.24C353.609 308.164 353.686 308.111 353.774 308.093C353.862 308.074 353.954 308.091 354.03 308.14C354.068 308.165 354.101 308.198 354.126 308.236C354.151 308.274 354.168 308.316 354.177 308.361C354.185 308.406 354.184 308.452 354.175 308.496C354.165 308.541 354.146 308.583 354.12 308.62C354.09 308.667 354.049 308.706 354 308.732C353.951 308.759 353.896 308.772 353.84 308.77C353.774 308.775 353.708 308.761 353.65 308.73V308.71ZM292.11 308.33C292.077 308.299 292.051 308.262 292.034 308.221C292.016 308.179 292.007 308.135 292.007 308.09C292.007 308.045 292.016 308.001 292.034 307.959C292.051 307.918 292.077 307.881 292.11 307.85C292.175 307.789 292.261 307.755 292.35 307.755C292.439 307.755 292.525 307.789 292.59 307.85C292.654 307.914 292.689 308 292.689 308.09C292.689 308.18 292.654 308.266 292.59 308.33C292.529 308.383 292.451 308.412 292.37 308.41C292.325 308.419 292.278 308.419 292.233 308.408C292.189 308.398 292.146 308.378 292.11 308.35V308.33ZM350.83 306.83C350.792 306.807 350.758 306.776 350.732 306.739C350.706 306.702 350.688 306.661 350.679 306.617C350.669 306.573 350.669 306.527 350.678 306.483C350.687 306.439 350.704 306.397 350.73 306.36C350.753 306.322 350.784 306.288 350.821 306.262C350.858 306.236 350.899 306.218 350.943 306.208C350.987 306.199 351.033 306.199 351.077 306.208C351.121 306.217 351.163 306.234 351.2 306.26C351.276 306.309 351.329 306.386 351.347 306.474C351.366 306.562 351.349 306.654 351.3 306.73C351.27 306.777 351.229 306.816 351.18 306.842C351.131 306.869 351.076 306.882 351.02 306.88C350.955 306.89 350.889 306.879 350.83 306.85V306.83ZM415.18 306.67C415.153 306.635 415.133 306.595 415.122 306.552C415.111 306.509 415.109 306.464 415.115 306.42C415.122 306.376 415.137 306.334 415.16 306.296C415.183 306.259 415.214 306.226 415.25 306.2C415.324 306.147 415.415 306.125 415.504 306.138C415.594 306.151 415.675 306.199 415.73 306.27C415.782 306.345 415.802 306.437 415.787 306.526C415.772 306.616 415.723 306.696 415.65 306.75C415.591 306.789 415.521 306.81 415.45 306.81C415.399 306.814 415.347 306.805 415.3 306.784C415.253 306.763 415.211 306.731 415.18 306.69V306.67ZM294.72 306.16C294.657 306.096 294.621 306.01 294.621 305.92C294.621 305.83 294.657 305.744 294.72 305.68C294.791 305.625 294.881 305.6 294.97 305.609C295.059 305.618 295.142 305.662 295.2 305.73C295.228 305.765 295.25 305.805 295.263 305.848C295.275 305.891 295.28 305.936 295.275 305.98C295.27 306.025 295.257 306.068 295.235 306.108C295.214 306.147 295.185 306.182 295.15 306.21C295.121 306.237 295.086 306.259 295.048 306.272C295.01 306.286 294.97 306.292 294.93 306.29C294.849 306.281 294.774 306.241 294.72 306.18V306.16ZM348 305C347.962 304.976 347.929 304.946 347.902 304.909C347.876 304.873 347.857 304.832 347.847 304.788C347.837 304.744 347.835 304.699 347.843 304.655C347.85 304.61 347.866 304.568 347.89 304.53C347.914 304.492 347.944 304.459 347.981 304.432C348.017 304.406 348.058 304.387 348.102 304.377C348.146 304.367 348.191 304.365 348.235 304.373C348.28 304.38 348.322 304.396 348.36 304.42C348.398 304.444 348.431 304.474 348.458 304.511C348.484 304.547 348.503 304.588 348.513 304.632C348.523 304.676 348.525 304.721 348.517 304.765C348.51 304.81 348.494 304.852 348.47 304.89C348.44 304.94 348.397 304.982 348.347 305.012C348.296 305.042 348.239 305.058 348.18 305.06C348.115 305.06 348.052 305.039 348 305ZM417.92 304.64C417.892 304.605 417.872 304.564 417.86 304.521C417.848 304.477 417.844 304.432 417.85 304.387C417.855 304.343 417.87 304.3 417.892 304.261C417.914 304.222 417.944 304.187 417.98 304.16C418.015 304.132 418.056 304.112 418.099 304.1C418.143 304.087 418.188 304.084 418.233 304.09C418.277 304.095 418.32 304.11 418.359 304.132C418.398 304.154 418.433 304.184 418.46 304.22C418.511 304.293 418.534 304.383 418.523 304.472C418.512 304.56 418.468 304.642 418.4 304.7C418.344 304.746 418.273 304.771 418.2 304.77C418.145 304.778 418.089 304.772 418.036 304.752C417.984 304.733 417.937 304.702 417.9 304.66L417.92 304.64ZM297.4 304.06C297.347 303.986 297.325 303.895 297.338 303.806C297.351 303.716 297.399 303.635 297.47 303.58C297.544 303.527 297.635 303.505 297.724 303.518C297.814 303.531 297.895 303.579 297.95 303.65C298.003 303.724 298.025 303.815 298.012 303.904C297.999 303.994 297.951 304.075 297.88 304.13C297.822 304.172 297.752 304.197 297.68 304.2C297.624 304.206 297.568 304.198 297.515 304.177C297.463 304.156 297.417 304.123 297.38 304.08L297.4 304.06ZM345.09 303.27C345.051 303.247 345.017 303.217 344.99 303.181C344.962 303.145 344.943 303.104 344.931 303.06C344.92 303.016 344.918 302.971 344.925 302.926C344.931 302.882 344.947 302.839 344.97 302.8C344.992 302.761 345.021 302.727 345.056 302.7C345.091 302.673 345.132 302.653 345.175 302.642C345.217 302.631 345.262 302.629 345.306 302.635C345.35 302.642 345.392 302.657 345.43 302.68C345.47 302.701 345.504 302.73 345.533 302.764C345.561 302.799 345.581 302.839 345.594 302.882C345.606 302.925 345.609 302.97 345.603 303.015C345.598 303.059 345.583 303.102 345.56 303.14C345.53 303.194 345.487 303.239 345.434 303.27C345.381 303.302 345.321 303.319 345.26 303.32C345.195 303.325 345.13 303.315 345.07 303.29L345.09 303.27ZM420.57 302.52C420.542 302.485 420.52 302.445 420.508 302.402C420.495 302.359 420.49 302.314 420.495 302.27C420.5 302.225 420.513 302.182 420.535 302.142C420.556 302.103 420.585 302.068 420.62 302.04C420.655 302.012 420.695 301.99 420.738 301.978C420.781 301.965 420.826 301.96 420.87 301.965C420.915 301.97 420.958 301.983 420.998 302.005C421.037 302.026 421.072 302.055 421.1 302.09C421.161 302.155 421.195 302.241 421.195 302.33C421.195 302.419 421.161 302.505 421.1 302.57C421.036 302.618 420.96 302.646 420.88 302.65C420.82 302.663 420.758 302.66 420.7 302.64C420.642 302.621 420.59 302.586 420.55 302.54L420.57 302.52ZM300.16 302.08C300.134 302.043 300.115 302.001 300.105 301.956C300.096 301.912 300.095 301.866 300.103 301.821C300.112 301.776 300.129 301.734 300.154 301.696C300.179 301.658 300.212 301.625 300.25 301.6C300.327 301.55 300.421 301.533 300.51 301.552C300.6 301.571 300.679 301.624 300.73 301.7C300.779 301.776 300.796 301.868 300.777 301.956C300.759 302.044 300.706 302.121 300.63 302.17C300.574 302.209 300.508 302.23 300.44 302.23C300.383 302.234 300.326 302.225 300.274 302.202C300.222 302.18 300.176 302.144 300.14 302.1L300.16 302.08ZM342.16 301.66C342.08 301.618 342.021 301.545 341.995 301.459C341.969 301.373 341.978 301.28 342.02 301.2C342.04 301.16 342.068 301.124 342.102 301.095C342.136 301.065 342.176 301.043 342.219 301.029C342.261 301.015 342.307 301.01 342.351 301.013C342.396 301.017 342.44 301.029 342.48 301.05C342.558 301.096 342.617 301.17 342.645 301.256C342.672 301.343 342.667 301.437 342.63 301.52C342.598 301.574 342.553 301.619 342.498 301.65C342.444 301.682 342.383 301.699 342.32 301.7C342.247 301.72 342.169 301.713 342.1 301.68L342.16 301.66ZM423.16 300.33C423.097 300.266 423.061 300.18 423.061 300.09C423.061 300 423.097 299.914 423.16 299.85C423.225 299.789 423.311 299.755 423.4 299.755C423.489 299.755 423.575 299.789 423.64 299.85C423.701 299.915 423.735 300.001 423.735 300.09C423.735 300.179 423.701 300.265 423.64 300.33C423.611 300.359 423.577 300.381 423.539 300.397C423.501 300.412 423.461 300.42 423.42 300.42C423.373 300.428 423.324 300.426 423.278 300.414C423.231 300.402 423.188 300.38 423.15 300.35L423.16 300.33ZM303 300.29C302.977 300.251 302.962 300.207 302.956 300.162C302.95 300.117 302.954 300.071 302.966 300.028C302.978 299.984 302.999 299.943 303.027 299.907C303.055 299.871 303.09 299.842 303.13 299.82C303.208 299.777 303.301 299.766 303.387 299.791C303.473 299.815 303.546 299.872 303.59 299.95C303.613 299.989 303.628 300.033 303.634 300.078C303.64 300.123 303.636 300.169 303.624 300.212C303.612 300.256 303.591 300.297 303.563 300.333C303.535 300.369 303.5 300.398 303.46 300.42C303.404 300.433 303.346 300.433 303.29 300.42C303.235 300.424 303.179 300.414 303.129 300.391C303.078 300.368 303.034 300.334 303 300.29ZM339.05 300.23C339.009 300.212 338.973 300.185 338.942 300.153C338.911 300.12 338.888 300.082 338.872 300.04C338.856 299.998 338.849 299.954 338.85 299.909C338.851 299.865 338.862 299.821 338.88 299.78C338.898 299.739 338.925 299.703 338.957 299.672C338.99 299.641 339.028 299.618 339.07 299.602C339.112 299.586 339.156 299.579 339.201 299.58C339.245 299.581 339.289 299.592 339.33 299.61C339.372 299.627 339.409 299.653 339.441 299.685C339.472 299.718 339.496 299.756 339.512 299.798C339.528 299.84 339.535 299.885 339.533 299.93C339.531 299.975 339.52 300.02 339.5 300.06C339.473 300.12 339.43 300.17 339.375 300.206C339.32 300.241 339.255 300.26 339.19 300.26C339.145 300.258 339.101 300.248 339.06 300.23H339.05ZM335.94 299C335.897 298.986 335.857 298.963 335.824 298.932C335.79 298.902 335.763 298.865 335.744 298.824C335.725 298.782 335.715 298.738 335.715 298.692C335.714 298.647 335.723 298.602 335.74 298.56C335.774 298.476 335.838 298.409 335.92 298.372C336.002 298.335 336.095 298.33 336.18 298.36C336.264 298.394 336.331 298.458 336.368 298.54C336.405 298.622 336.41 298.715 336.38 298.8C336.357 298.866 336.313 298.923 336.256 298.962C336.198 299.002 336.13 299.022 336.06 299.02C336.019 299.023 335.978 299.016 335.94 299ZM306 298.72C305.965 298.637 305.964 298.545 305.995 298.461C306.027 298.377 306.09 298.309 306.17 298.27C306.211 298.25 306.256 298.239 306.302 298.236C306.348 298.234 306.393 298.241 306.436 298.257C306.479 298.273 306.519 298.297 306.552 298.329C306.585 298.36 306.612 298.398 306.63 298.44C306.648 298.481 306.658 298.526 306.659 298.571C306.659 298.616 306.651 298.661 306.634 298.703C306.618 298.745 306.593 298.783 306.561 298.815C306.529 298.847 306.492 298.873 306.45 298.89C306.404 298.9 306.356 298.9 306.31 298.89C306.248 298.893 306.186 298.878 306.131 298.848C306.077 298.818 306.031 298.774 306 298.72ZM332.73 297.91C332.643 297.882 332.571 297.822 332.528 297.742C332.485 297.661 332.475 297.568 332.5 297.48C332.528 297.393 332.588 297.321 332.668 297.278C332.749 297.235 332.843 297.225 332.93 297.25C333.017 297.278 333.089 297.338 333.132 297.418C333.175 297.499 333.185 297.592 333.16 297.68C333.137 297.749 333.093 297.81 333.034 297.853C332.974 297.896 332.903 297.92 332.83 297.92H332.73V297.91ZM309.14 297.44C309.126 297.397 309.121 297.352 309.124 297.308C309.128 297.263 309.14 297.219 309.16 297.179C309.181 297.139 309.209 297.104 309.243 297.075C309.278 297.046 309.317 297.024 309.36 297.01C309.403 296.996 309.448 296.991 309.493 296.994C309.537 296.998 309.581 297.01 309.621 297.03C309.661 297.051 309.696 297.079 309.725 297.113C309.754 297.148 309.776 297.187 309.79 297.23C309.804 297.273 309.809 297.318 309.806 297.362C309.802 297.407 309.79 297.451 309.77 297.491C309.749 297.531 309.721 297.566 309.687 297.595C309.653 297.624 309.613 297.646 309.57 297.66H309.46C309.392 297.658 309.327 297.637 309.271 297.597C309.216 297.558 309.174 297.503 309.15 297.44H309.14ZM329.47 297.08C329.383 297.061 329.307 297.008 329.258 296.933C329.209 296.858 329.192 296.767 329.21 296.68C329.218 296.635 329.236 296.592 329.261 296.555C329.286 296.517 329.32 296.485 329.358 296.46C329.397 296.436 329.44 296.42 329.485 296.413C329.53 296.406 329.576 296.408 329.62 296.42C329.664 296.428 329.706 296.445 329.743 296.47C329.78 296.495 329.811 296.527 329.836 296.564C329.86 296.602 329.876 296.644 329.884 296.688C329.892 296.732 329.89 296.777 329.88 296.82C329.864 296.898 329.821 296.967 329.759 297.016C329.697 297.066 329.619 297.092 329.54 297.09H329.47V297.08ZM312.39 296.51C312.38 296.465 312.379 296.419 312.387 296.374C312.395 296.329 312.412 296.286 312.438 296.247C312.463 296.209 312.495 296.176 312.534 296.151C312.572 296.126 312.615 296.108 312.66 296.1C312.747 296.082 312.838 296.099 312.913 296.148C312.988 296.197 313.041 296.273 313.06 296.36C313.07 296.404 313.072 296.45 313.064 296.494C313.057 296.539 313.04 296.581 313.016 296.62C312.992 296.658 312.96 296.691 312.923 296.717C312.886 296.742 312.844 296.761 312.8 296.77H312.73C312.654 296.768 312.581 296.742 312.522 296.695C312.462 296.648 312.419 296.583 312.4 296.51H312.39ZM326.16 296.51C326.071 296.495 325.99 296.446 325.936 296.374C325.882 296.301 325.858 296.21 325.87 296.12C325.875 296.076 325.889 296.033 325.911 295.994C325.933 295.955 325.962 295.921 325.998 295.894C326.033 295.866 326.074 295.847 326.117 295.836C326.161 295.825 326.206 295.823 326.25 295.83C326.339 295.845 326.42 295.894 326.474 295.966C326.528 296.039 326.552 296.13 326.54 296.22C326.526 296.3 326.484 296.373 326.422 296.426C326.36 296.479 326.282 296.509 326.2 296.51H326.15H326.16ZM315.73 295.94C315.722 295.851 315.748 295.763 315.804 295.694C315.861 295.625 315.942 295.58 316.03 295.57C316.075 295.563 316.121 295.565 316.165 295.577C316.209 295.588 316.25 295.609 316.286 295.637C316.321 295.665 316.351 295.7 316.372 295.741C316.394 295.781 316.406 295.825 316.41 295.87C316.418 295.961 316.391 296.052 316.333 296.123C316.275 296.194 316.191 296.24 316.1 296.25C316.01 296.253 315.923 296.221 315.856 296.162C315.789 296.102 315.748 296.019 315.74 295.93L315.73 295.94ZM322.81 296.16C322.765 296.159 322.72 296.148 322.68 296.129C322.639 296.11 322.602 296.083 322.572 296.049C322.542 296.016 322.519 295.976 322.505 295.933C322.491 295.89 322.486 295.845 322.49 295.8C322.493 295.755 322.504 295.712 322.523 295.671C322.543 295.631 322.57 295.595 322.604 295.565C322.637 295.536 322.676 295.513 322.718 295.498C322.761 295.483 322.805 295.477 322.85 295.48C322.941 295.488 323.026 295.531 323.085 295.6C323.145 295.669 323.176 295.759 323.17 295.85C323.165 295.937 323.127 296.018 323.064 296.078C323 296.137 322.917 296.17 322.83 296.17L322.81 296.16ZM319.11 295.72C319.109 295.675 319.116 295.63 319.133 295.588C319.15 295.546 319.175 295.508 319.207 295.477C319.238 295.445 319.276 295.42 319.318 295.403C319.36 295.386 319.405 295.379 319.45 295.38C319.54 295.38 319.627 295.416 319.69 295.48C319.754 295.543 319.79 295.63 319.79 295.72C319.79 295.81 319.754 295.897 319.69 295.96C319.627 296.024 319.54 296.06 319.45 296.06C319.405 296.059 319.361 296.049 319.321 296.03C319.28 296.012 319.243 295.986 319.213 295.953C319.182 295.921 319.158 295.883 319.142 295.841C319.126 295.799 319.119 295.755 319.12 295.71L319.11 295.72Z" fill="white"/>
<path d="M252.25 319C252.207 319.009 252.163 319.009 252.12 319C252.077 318.983 252.04 318.955 252.01 318.92C251.976 318.892 251.951 318.853 251.94 318.81C251.93 318.767 251.93 318.723 251.94 318.68C251.943 318.591 251.979 318.505 252.04 318.44C252.07 318.408 252.108 318.384 252.15 318.37C252.191 318.35 252.235 318.34 252.28 318.34C252.325 318.34 252.369 318.35 252.41 318.37C252.453 318.381 252.492 318.406 252.52 318.44C252.552 318.471 252.577 318.508 252.595 318.55C252.612 318.591 252.62 318.635 252.62 318.68C252.631 318.723 252.631 318.767 252.62 318.81C252.605 318.854 252.577 318.892 252.54 318.92C252.51 318.955 252.473 318.983 252.43 319C252.372 319.02 252.308 319.02 252.25 319Z" fill="white"/>
</g>
<path d="M307.08 216.61L304.75 214.09C300.542 218.07 294.982 220.307 289.19 220.35C284.594 220.422 280.12 218.875 276.55 215.979C272.981 213.082 270.546 209.022 269.67 204.51L266.17 205.43L262.97 206.27C263.879 210.994 266.092 215.369 269.36 218.9C279.51 229.84 297.5 229.84 309.22 218.9L307.08 216.61Z" fill="white"/>
<path d="M312.07 179.05L309 181.9L306.89 183.9C308.753 185.921 310.176 188.307 311.071 190.905C311.966 193.504 312.313 196.26 312.09 199C311.636 204.782 309.014 210.179 304.75 214.11L306.58 216.11L309.22 218.95C314.844 213.757 318.301 206.632 318.9 199C319.198 195.383 318.746 191.744 317.57 188.311C316.395 184.878 314.522 181.725 312.07 179.05Z" fill="#263238"/>
<path d="M312.07 179.05C301.92 168.12 283.93 168.12 272.22 179.05C268.514 182.442 265.725 186.717 264.113 191.476C262.501 196.234 262.118 201.324 263 206.27L267 205.27L269.74 204.55C269.39 202.729 269.283 200.869 269.42 199.02C269.906 193.252 272.518 187.87 276.751 183.921C280.983 179.971 286.532 177.736 292.32 177.65C295.064 177.62 297.784 178.161 300.308 179.239C302.832 180.316 305.104 181.907 306.98 183.91L309.68 181.38L312.07 179.05Z" fill="black"/>
<path d="M340.8 216.61L343.49 214.09C341.633 212.068 340.215 209.683 339.325 207.086C338.435 204.489 338.093 201.736 338.32 199C338.73 194.194 340.614 189.631 343.714 185.935C346.813 182.239 350.979 179.59 355.64 178.35L354.96 174.91L354.35 171.77C349.429 173.082 344.908 175.589 341.19 179.07C329.47 190 328.19 207.99 338.33 218.93L340.8 216.61Z" fill="white"/>
<path d="M378.19 218.91L375.54 216.05L373.72 214.05C369.514 218.035 363.953 220.275 358.16 220.32C355.414 220.35 352.693 219.809 350.167 218.732C347.642 217.654 345.368 216.063 343.49 214.06L341.38 216.06L338.33 218.91C340.811 221.544 343.809 223.637 347.138 225.057C350.466 226.477 354.052 227.193 357.67 227.16C365.305 227.095 372.634 224.148 378.19 218.91Z" fill="#263238"/>
<path d="M378.19 218.91C389.9 207.97 391.19 189.98 381.05 179.05C377.681 175.525 373.416 172.983 368.712 171.697C364.009 170.411 359.044 170.43 354.35 171.75L355.11 175.64L355.64 178.33C357.462 177.852 359.337 177.61 361.22 177.61C363.97 177.569 366.699 178.107 369.228 179.189C371.757 180.271 374.031 181.872 375.901 183.889C377.772 185.905 379.198 188.293 380.087 190.896C380.975 193.499 381.307 196.26 381.06 199C380.603 204.778 377.982 210.171 373.72 214.1L376.06 216.63L378.19 218.91Z" fill="black"/>
<path opacity="0.3" d="M425.42 173.31C425.695 173.309 425.967 173.365 426.219 173.474C426.471 173.584 426.698 173.744 426.886 173.944C427.074 174.145 427.218 174.383 427.31 174.642C427.402 174.901 427.439 175.176 427.42 175.45L426.18 192.7C426.122 193.31 425.842 193.877 425.395 194.295C424.947 194.713 424.362 194.953 423.75 194.97H406.49C406.214 194.971 405.941 194.915 405.688 194.805C405.435 194.695 405.208 194.534 405.02 194.332C404.832 194.13 404.688 193.892 404.597 193.632C404.506 193.371 404.469 193.095 404.49 192.82L405.72 175.57C405.779 174.961 406.058 174.395 406.506 173.979C406.954 173.562 407.539 173.324 408.15 173.31H425.4M425.4 172.42H408.17C407.334 172.436 406.534 172.761 405.923 173.331C405.313 173.902 404.934 174.678 404.86 175.51L403.63 192.76C403.597 193.155 403.646 193.552 403.775 193.927C403.904 194.302 404.109 194.645 404.378 194.936C404.647 195.227 404.974 195.458 405.338 195.616C405.701 195.773 406.094 195.853 406.49 195.85H423.74C424.576 195.836 425.378 195.512 425.989 194.941C426.6 194.37 426.978 193.593 427.05 192.76L428.29 175.51C428.323 175.114 428.274 174.716 428.144 174.341C428.015 173.965 427.809 173.621 427.538 173.33C427.268 173.039 426.94 172.808 426.575 172.651C426.211 172.495 425.817 172.416 425.42 172.42H425.4Z" fill="black"/>
<path opacity="0.3" d="M423.29 203C423.565 202.999 423.837 203.055 424.089 203.164C424.341 203.274 424.568 203.434 424.756 203.634C424.944 203.835 425.088 204.073 425.18 204.332C425.272 204.591 425.309 204.866 425.29 205.14L424.06 222.39C424 222.999 423.72 223.565 423.273 223.983C422.825 224.4 422.242 224.641 421.63 224.66H404.37C404.094 224.661 403.821 224.605 403.568 224.495C403.315 224.385 403.088 224.224 402.9 224.022C402.712 223.82 402.568 223.582 402.477 223.322C402.386 223.061 402.349 222.785 402.37 222.51L403.61 205.26C403.669 204.651 403.948 204.085 404.396 203.669C404.844 203.252 405.429 203.014 406.04 203H423.28M423.28 202.11H406.05C405.214 202.124 404.412 202.448 403.801 203.019C403.19 203.59 402.812 204.367 402.74 205.2L401.5 222.45C401.467 222.846 401.516 223.244 401.646 223.619C401.775 223.995 401.981 224.339 402.252 224.63C402.522 224.921 402.85 225.152 403.215 225.309C403.579 225.465 403.973 225.544 404.37 225.54H421.62C422.456 225.524 423.256 225.199 423.867 224.629C424.477 224.058 424.856 223.282 424.93 222.45L426.16 205.2C426.193 204.804 426.144 204.406 426.014 204.031C425.885 203.655 425.679 203.311 425.408 203.02C425.138 202.729 424.81 202.498 424.445 202.341C424.081 202.185 423.687 202.106 423.29 202.11H423.28Z" fill="black"/>
<path d="M398 298.43C398.232 298.424 398.462 298.467 398.676 298.557C398.889 298.647 399.082 298.781 399.24 298.95C399.397 299.122 399.516 299.324 399.59 299.545C399.664 299.765 399.691 299.998 399.67 300.23C399.626 300.749 399.391 301.234 399.01 301.59C398.63 301.947 398.131 302.15 397.61 302.16C397.377 302.167 397.146 302.124 396.932 302.034C396.717 301.945 396.524 301.81 396.366 301.639C396.208 301.469 396.088 301.266 396.015 301.046C395.941 300.825 395.916 300.591 395.94 300.36C395.982 299.84 396.217 299.354 396.597 298.997C396.978 298.64 397.478 298.438 398 298.43ZM398 297.55C397.258 297.562 396.546 297.849 396.003 298.355C395.46 298.861 395.124 299.55 395.06 300.29C395.028 300.642 395.07 300.997 395.184 301.332C395.298 301.667 395.481 301.974 395.722 302.234C395.962 302.493 396.255 302.699 396.58 302.838C396.905 302.977 397.256 303.046 397.61 303.04C398.354 303.028 399.066 302.74 399.61 302.231C400.153 301.723 400.488 301.031 400.55 300.29C400.581 299.939 400.538 299.584 400.423 299.251C400.308 298.917 400.125 298.611 399.884 298.353C399.644 298.095 399.352 297.89 399.027 297.751C398.703 297.613 398.353 297.544 398 297.55Z" fill="black"/>
<path d="M398.26 297.56L397.82 297.53L397.89 296.65L398.32 296.68L398.26 297.56Z" fill="black"/>
<path d="M398.45 294.88H398.01L398.14 293.08H398.58L398.45 294.88ZM398.71 291.26H398.27L398.4 289.46H398.84L398.71 291.26ZM398.97 287.65H398.53L398.66 285.84H399.1L398.97 287.65ZM399.23 284.04H398.79L398.92 282.23H399.36L399.23 284.04ZM399.49 280.43H399.05L399.18 278.62H399.62L399.49 280.43ZM399.75 276.82H399.31L399.44 275.01H399.88L399.75 276.82ZM400.01 273.2H399.57L399.7 271.4H400.14L400.01 273.2ZM400.27 269.59H399.83L399.96 267.78H400.4L400.27 269.59ZM400.53 265.98H400.09L400.22 264.17H400.66L400.53 265.98ZM400.78 262.37H400.34L400.47 260.56H400.91L400.78 262.37ZM401.04 258.76H400.6L400.73 256.95H401.17L401.04 258.76Z" fill="black"/>
<path d="M400.912 254.234L400.849 255.112L401.288 255.143L401.35 254.266L400.912 254.234Z" fill="black"/>
<path d="M419.78 254.73H261.44C261.006 254.734 260.577 254.647 260.179 254.475C259.781 254.303 259.424 254.049 259.13 253.73C258.833 253.411 258.607 253.034 258.464 252.622C258.321 252.211 258.265 251.774 258.3 251.34L259.09 240.44C259.164 239.548 259.568 238.716 260.223 238.106C260.877 237.496 261.735 237.152 262.63 237.14H421C421.432 237.137 421.861 237.224 422.258 237.396C422.655 237.568 423.012 237.82 423.306 238.137C423.6 238.454 423.826 238.828 423.968 239.237C424.109 239.645 424.165 240.079 424.13 240.51L423.35 251.41C423.278 252.309 422.871 253.149 422.21 253.764C421.549 254.378 420.682 254.723 419.78 254.73ZM262.63 238.1C261.975 238.11 261.347 238.363 260.868 238.811C260.39 239.258 260.095 239.867 260.04 240.52L259.26 251.42C259.235 251.723 259.272 252.027 259.37 252.315C259.468 252.602 259.625 252.866 259.83 253.09C260.037 253.309 260.286 253.482 260.564 253.599C260.841 253.716 261.139 253.774 261.44 253.77H419.78C420.436 253.762 421.065 253.51 421.544 253.062C422.023 252.614 422.318 252.004 422.37 251.35L423.16 240.45C423.183 240.151 423.145 239.851 423.047 239.568C422.949 239.285 422.794 239.025 422.592 238.805C422.389 238.584 422.143 238.408 421.869 238.287C421.595 238.165 421.299 238.102 421 238.1H262.63Z" fill="black"/>
<path opacity="0.8" fill-rule="evenodd" clip-rule="evenodd" d="M416.38 244.18H266.28C266.089 244.182 265.899 244.144 265.723 244.069C265.548 243.993 265.39 243.881 265.26 243.741C265.13 243.601 265.03 243.435 264.968 243.254C264.907 243.073 264.883 242.881 264.9 242.69C264.937 242.291 265.119 241.92 265.413 241.647C265.706 241.374 266.089 241.218 266.49 241.21H416.6C416.79 241.208 416.978 241.246 417.153 241.321C417.327 241.396 417.484 241.507 417.613 241.646C417.742 241.785 417.841 241.95 417.902 242.13C417.964 242.31 417.987 242.501 417.97 242.69C417.938 243.092 417.757 243.467 417.463 243.742C417.169 244.018 416.783 244.174 416.38 244.18Z" fill="white"/>
<path opacity="0.8" fill-rule="evenodd" clip-rule="evenodd" d="M391.37 250.43H265.83C265.64 250.432 265.452 250.394 265.277 250.319C265.103 250.244 264.946 250.133 264.817 249.994C264.688 249.855 264.589 249.69 264.528 249.51C264.466 249.33 264.443 249.139 264.46 248.95C264.492 248.548 264.673 248.173 264.967 247.898C265.261 247.622 265.647 247.466 266.05 247.46H391.58C391.779 247.451 391.978 247.486 392.163 247.562C392.347 247.638 392.513 247.753 392.648 247.9C392.783 248.047 392.885 248.221 392.946 248.411C393.006 248.601 393.025 248.802 393 249C392.951 249.397 392.758 249.762 392.457 250.025C392.157 250.289 391.77 250.433 391.37 250.43Z" fill="white"/>
<defs>
<radialGradient id="paint0_radial_2_438" cx="0" cy="0" r="1" gradientUnits="userSpaceOnUse" gradientTransform="translate(250 250) rotate(90) scale(237)">
<stop stop-color="#D9D9D9"/>
<stop offset="0.75" stop-color="#D9D9D9" stop-opacity="0.151042"/>
<stop offset="1" stop-color="#D9D9D9" stop-opacity="0"/>
</radialGradient>
</defs>
</svg>
